HIERARCHY
ROOT Hips
{
  OFFSET 284.663 95.99 -250.545
  CHANNELS 6 Xposition Yposition Zposition Zrotation Xrotation Yrotation
  JOINT ToSpine
  {
    OFFSET -2.69724 7.43032 -0.144315
    CHANNELS 3 Zrotation Xrotation Yrotation
    JOINT Spine
    {
      OFFSET -0.0310711 10.7595 1.96963
      CHANNELS 3 Zrotation Xrotation Yrotation
      JOINT Spine1
      {
        OFFSET 13.1342 3.43533 0.764692
        CHANNELS 3 Zrotation Xrotation Yrotation
        JOINT Neck
        {
          OFFSET 29.8703 7.82586 -0.130764
          CHANNELS 3 Zrotation Xrotation Yrotation
          JOINT Head
          {
            OFFSET 9.52751 0.295786 -0.907742
            CHANNELS 3 Zrotation Xrotation Yrotation
            End Site
            {
              OFFSET 16.4037 0.713936 2.7358
            }
          }
        }
        JOINT LeftShoulder
        {
          OFFSET 27.5574 4.95586 2.47156
          CHANNELS 3 Zrotation Xrotation Yrotation
          JOINT LeftArm
          {
            OFFSET 1.20734 -0.998971 20.1238
            CHANNELS 3 Zrotation Xrotation Yrotation
            JOINT LeftForeArm
            {
              OFFSET 26.8049 -0.0536703 -0.155908
              CHANNELS 3 Zrotation Xrotation Yrotation
              JOINT LeftHand
              {
                OFFSET 26.6817 0 0.320147
                CHANNELS 3 Zrotation Xrotation Yrotation
                End Site
                {
                  OFFSET 18.6119 0 0.382219
                }
              }
            }
          }
        }
        JOINT RightShoulder
        {
          OFFSET 27.5927 4.71444 -2.65209
          CHANNELS 3 Zrotation Xrotation Yrotation
          JOINT RightArm
          {
            OFFSET 2.83739 -1.17114 -18.7564
            CHANNELS 3 Zrotation Xrotation Yrotation
            JOINT RightForeArm
            {
              OFFSET 28.839 -0.0548439 1.22491
              CHANNELS 3 Zrotation Xrotation Yrotation
              JOINT RightHand
              {
                OFFSET 26.5114 0 -0.101894
                CHANNELS 3 Zrotation Xrotation Yrotation
                End Site
                {
                  OFFSET 18.2168 0 0
                }
              }
            }
          }
        }
      }
    }
  }
  JOINT LeftUpLeg
  {
    OFFSET -4.76168 -1.9167 -10.2353
    CHANNELS 3 Zrotation Xrotation Yrotation
    JOINT LeftLeg
    {
      OFFSET 2.55951 -42.0585 -8.02213
      CHANNELS 3 Zrotation Xrotation Yrotation
      JOINT LeftFoot
      {
        OFFSET 3.16357 -42.5282 -3.95426
        CHANNELS 3 Zrotation Xrotation Yrotation
        JOINT LeftToeBase
        {
          OFFSET 0.346054 -6.02161 12.8035
          CHANNELS 3 Zrotation Xrotation Yrotation
          End Site
          {
            OFFSET 0.134235 -1.35082 5.13018
          }
        }
      }
    }
  }
  JOINT RightUpLeg
  {
    OFFSET -4.94151 -1.41743 10.6446
    CHANNELS 3 Zrotation Xrotation Yrotation
    JOINT RightLeg
    {
      OFFSET -2.56294 -42.0364 -7.94377
      CHANNELS 3 Zrotation Xrotation Yrotation
      JOINT RightFoot
      {
        OFFSET -3.0952 -42.555 -4.02241
        CHANNELS 3 Zrotation Xrotation Yrotation
        JOINT RightToeBase
        {
          OFFSET -0.0828122 -6.13587 12.8035
          CHANNELS 3 Zrotation Xrotation Yrotation
          End Site
          {
            OFFSET -0.131328 -1.35082 5.13018
          }
        }
      }
    }
  }
}
MOTION
Frames:	17
Frame Time:	0.0333333
284.663 95.99 -250.545 -55.312 -46.5472 -153.624 -70.1915 0 88.8779 81.6522 69.6842 3.91445 3.83123 18.9132 2.19006 -151.659 20.1935 170.78 -151.205 58.8115 179.442 -0.402578 -16.4622 -33.6776 -69.8982 42.1228 -92.8229 13.1374 14.2278 -43.0832 0.420957 0.000575542 0.35866 -1.55773 4.92205 46.345 -70.3703 -36.2358 85.6585 7.16857 -13.0116 29.3441 0.58676 0.000331026 0.0646652 -55.9551 -5.98595 95.9926 -0.958027 33.8826 -15.0212 9.07011 -23.407 -1.25372 -1.27024 -0.71672 8.16496 -26.0045 3.53381 86.432 1.65655 37.5737 1.48376 -7.75578 -3.54241 1.18863 2.26433 -18.2841 -11.8997 
283.374 95.5228 -248.699 -54.411 -47.1853 -152.888 -70.1915 0 88.8779 81.8856 69.1343 3.61566 3.90724 18.4414 1.96453 -151.001 19.9247 170.53 -150.642 58.5272 179.467 -0.406111 -16.5624 -33.3472 -69.1613 41.4059 -93.8982 12.2273 13.1151 -43.2628 0.420957 0.000575542 0.35866 -1.7657 5.20201 48.4066 -70.4747 -34.7614 84.4448 6.51261 -12.4184 28.1427 0.58676 0.000331026 0.0646652 -57.2468 -5.67653 96.8704 -1.11952 33.9816 -17.123 8.78723 -24.6422 -1.28006 -1.39526 -0.488989 8.16926 -24.4681 2.82915 85.7269 1.59061 33.0543 3.21119 -6.81548 -1.68288 1.06123 2.25968 -17.8856 -12.6664 
281.779 94.9193 -246.63 -54.7143 -46.9582 -153.573 -70.1915 0 88.8779 80.6194 68.8498 4.40706 4.82318 18.0256 2.48877 -151.123 19.8256 173.575 -154.362 58.8591 -176.168 -0.43042 -16.4492 -34.2003 -71.0445 40.9222 -94.4648 11.9735 13.2771 -42.3109 0.420957 0.000575542 0.35866 -1.83021 5.61627 47.0665 -70.9122 -35.3586 84.9159 6.02547 -13.6532 26.4631 0.58676 0.000331026 0.0646652 -59.27 -5.93468 97.5037 -0.964398 33.6773 -18.286 8.03996 -25.5236 -1.35826 -0.938673 -1.90321 9.83146 -23.5144 2.84284 85.7756 1.41587 29.0543 3.32452 -5.3832 -1.42792 0.888382 2.19769 -15.6079 -11.3207 
280.066 94.2609 -244.352 -54.1293 -47.4271 -153.45 -70.1915 0 88.8779 78.4727 68.6141 6.04784 5.8617 17.8217 2.5409 -151.286 19.7541 173.541 -153.522 58.7002 -176.682 -0.510871 -16.763 -34.2916 -70.4004 40.1429 -95.3639 12.7131 14.1086 -42.36 0.420957 0.000575542 0.35866 -1.77699 5.46798 47.0119 -72.1031 -35.21 84.0188 5.72587 -13.9962 26.0267 0.58676 0.000331026 0.0646652 -60.9325 -6.45702 97.1706 -0.919255 34.0908 -18.9766 8.54678 -24.9481 -1.30396 0.191275 -3.75021 9.36236 -22.9796 1.79436 84.6553 1.78601 25.4402 2.05129 -11.6691 -0.0875617 1.65756 2.26647 -18.3613 -9.11447 
278.187 93.8589 -242.026 -54.0178 -47.2185 -153.274 -70.1915 0 88.8779 79.6241 68.394 5.50203 5.87499 17.5912 2.21033 -150.992 19.3509 173.339 -153.329 58.3035 -176.531 -0.384742 -16.3589 -33.7849 -74.9133 40.3274 -93.1446 20.5588 22.0925 -44.4034 0.420957 0.000575542 0.35866 -1.80054 5.48545 47.3129 -72.9301 -34.6816 83.4939 4.96231 -15.5137 24.9527 0.58676 0.000331026 0.0646652 -63.0914 -6.35862 96.8568 -0.682843 33.4445 -20.927 6.96905 -24.3431 -1.44325 1.12821 -5.73 10.6198 -22.2543 2.34202 85.1906 1.73301 24.6493 3.00151 -4.26569 -1.31062 0.752355 2.3394 -14.7335 -16.2956 
275.873 93.2073 -239.38 -53.8382 -47.3057 -152.962 -70.1915 0 88.8779 79.1337 68.1477 5.8868 6.13512 17.17 2.85143 -151.8 19.5001 174.331 -153.866 58.4335 -176.43 -0.518792 -16.746 -34.485 -72.3306 40.0834 -94.5658 14.5642 17.0127 -41.1468 0.420957 0.000575542 0.35866 -1.73787 5.29452 47.3514 -75.4503 -33.816 81.8036 4.94268 -18.5741 24.2211 0.58676 0.000331026 0.0646652 -65.0125 -5.95513 96.3758 -0.716251 34.1257 -22.7065 5.44171 -22.9301 -1.53254 3.2366 -9.4593 11.4621 -21.5413 2.32073 84.2501 1.70546 27.2296 2.27346 -5.5335 -2.19338 0.928547 2.29555 -14.7572 -14.965 
273.48 92.5806 -236.784 -53.4619 -47.6583 -152.114 -70.1915 0 88.8779 79.195 67.8474 5.81123 6.07395 16.5901 3.74169 -152.067 19.2453 174.725 -154.377 58.1889 -176.313 -0.566206 -17.0204 -34.194 -70.3589 41.1371 -95.4343 11.1459 14.0454 -38.673 0.420957 0.000575542 0.35866 -1.78674 5.41237 47.5027 -77.5855 -33.6514 79.7689 4.9204 -19.1585 24.028 0.58676 0.000331026 0.0646652 -66.9397 -5.48203 94.035 -1.49198 34.5925 -20.6931 3.88582 -17.6363 -1.39727 8.62782 -18.1783 9.75343 -20.9298 2.66371 83.7617 1.38973 31.8838 1.26614 -4.90483 -2.1385 0.856939 2.24475 -13.9738 -13.5183 
270.876 92.3847 -233.912 -52.9341 -47.2076 -150.916 -70.1915 0 88.8779 78.5988 67.3723 7.87267 6.5706 16.2682 3.44545 -153.081 18.9965 175.391 -154.807 57.92 -176.458 -0.60688 -17.1249 -34.4336 -68.5773 41.2617 -94.7208 8.81288 11.9918 -36.398 0.420957 0.000575542 0.35866 -1.75995 5.34713 47.4244 -80.1548 -33.1871 78.6211 4.72032 -21.1759 23.4447 0.58676 0.000331026 0.0646652 -67.535 -5.09987 90.2311 -2.87736 36.5519 -14.9685 2.19935 -16.1124 -1.34852 9.2665 -19.2692 7.31979 -20.0294 3.42784 83.3437 1.10191 36.2204 -2.50807 -6.10275 -1.45062 0.973436 2.04111 -13.8735 -8.50993 
268.109 92.4081 -230.824 -54.455 -46.5816 -150.431 -70.1915 0 88.8779 81.5289 67.3017 7.5803 6.88342 16.2713 2.87918 -152.897 18.795 175.183 -153.595 57.5374 -177.804 -0.747293 -17.4919 -35.1825 -69.0544 41.5298 -93.2195 9.63364 14.3602 -34.0211 0.420957 0.000575542 0.35866 -1.80752 5.50212 47.3352 -82.4234 -32.6031 77.5948 4.30629 -23.5526 22.6806 0.58676 0.000331026 0.0646652 -67.7406 -2.23736 90.9576 -3.56665 41.4636 -14.4438 -0.355758 -13.6034 -1.16991 9.26592 -19.3026 5.74486 -21.2714 5.07637 81.762 1.21291 39.6843 -3.26285 -7.60943 -2.30553 1.15984 2.0273 -14.0517 -7.92941 
265.434 92.4359 -228.033 -54.9505 -46.5333 -150.391 -70.1915 0 88.8779 82.6898 67.2246 6.80492 6.73823 16.1719 3.17278 -152.911 18.5975 175.31 -154.187 57.3553 -177.911 -0.712607 -17.5546 -34.4634 -68.2604 43.2353 -92.8304 9.62537 15.521 -31.99 0.420957 0.000575542 0.35866 -1.81031 5.57432 46.9699 -84.4061 -32.7692 76.9408 4.22546 -25.1958 22.2664 0.58676 0.000331026 0.0646652 -65.301 0.133118 92.8685 -4.33893 48.6217 -12.9626 -2.32741 -4.57807 -0.241722 12.3031 -25.4439 -0.298653 -22.4214 5.78359 81.6921 1.61591 42.9064 -2.1504 -7.19283 -4.25534 1.14367 2.11088 -12.6335 -11.0468 
262.62 92.774 -225.288 -56.2016 -45.5736 -151.646 -70.1915 0 88.8779 84.6845 67.8787 5.11138 5.83154 17.0083 2.68127 -151.945 18.5076 174.169 -153.422 57.2121 -178.542 -0.763545 -17.5241 -35.301 -69.4419 42.798 -91.3276 8.45761 16.833 -28.3162 0.420957 0.000575542 0.35866 -1.78502 5.56944 46.5718 -83.5852 -34.1379 77.7382 4.42902 -24.3189 22.586 0.58676 0.000331026 0.0646652 -61.57 1.43908 93.7491 -6.02483 56.9123 -12.5862 -5.68188 3.75666 1.12155 11.024 -22.7187 1.96978 -24.5529 7.30359 82.4958 1.57529 44.21 -3.34993 -7.94277 -6.53236 1.23323 1.85853 -10.4498 -8.31341 
260.114 93.3496 -222.658 -55.8156 -47.0045 -150.366 -70.1915 0 88.8779 88.7141 67.5149 1.3085 4.65995 16.4173 3.03678 -152.174 18.8483 173.942 -153.349 57.5656 -178.599 -0.810595 -17.7812 -35.0624 -67.4773 43.7459 -90.3104 8.75349 15.5832 -29.615 0.420957 0.000575542 0.35866 -1.79875 5.72202 45.9618 -78.0747 -35.8331 81.6558 5.0514 -19.6258 24.0111 0.58676 0.000331026 0.0646652 -55.4315 2.60119 91.6334 -9.69246 66.9339 -8.98095 -6.79074 7.83151 1.8546 6.35574 -14.5425 11.3081 -27.4954 6.84166 80.7647 1.69597 44.5513 -2.76596 -8.81695 -9.08738 1.3 1.94444 -8.00846 -10.5679 
257.446 93.9118 -219.891 -57.5962 -46.1032 -151.967 -70.1915 0 88.8779 91.9006 68.224 -1.23659 4.30954 17.3555 2.25305 -152.659 19.1478 175.145 -156.377 58.2085 -175.885 -0.885528 -17.8658 -35.8013 -69.5179 43.9903 -86.8077 9.68566 16.4073 -30.7583 0.420957 0.000575542 0.35866 -1.88756 6.11986 45.3215 -72.1266 -36.9916 86.3063 5.50093 -14.8709 25.5493 0.58676 0.000331026 0.0646652 -49.8253 3.98156 92.6947 -13.1389 73.3068 0.493091 -2.56497 4.5347 0.693312 8.38789 -17.8044 11.9144 -31.0553 8.40611 81.8815 1.5801 43.9196 -3.21565 -9.27075 -11.3714 1.31642 1.81118 -7.06422 -9.52957 
254.772 94.7969 -216.821 -58.9126 -44.984 -154.503 -70.1915 0 88.8779 90.1989 69.3499 0.57359 5.24442 18.9578 0.33356 -151.867 19.3721 175.055 -156.309 58.4899 -175.091 -0.991493 -18.2064 -36.0504 -69.1145 44.3295 -86.2886 8.26453 14.3071 -30.1081 0.420957 0.000575542 0.35866 -1.915 6.12089 45.7432 -68.9931 -36.4451 89.3093 6.40841 -13.1529 27.1869 0.58676 0.000331026 0.0646652 -44.7937 3.83176 94.3883 -14.2969 74.8681 3.59973 -1.63671 2.43739 0.345101 6.28487 -14.3903 10.8177 -35.196 8.54718 83.6148 1.6548 42.4267 -1.82961 -9.07705 -13.3057 1.30825 1.96098 -6.94786 -11.0459 
252.212 95.6019 -214.253 -58.4234 -44.2345 -154.932 -70.1915 0 88.8779 86.6361 70.3428 2.7512 5.42869 19.7447 1.20395 -151.77 19.6379 175.152 -156.354 58.7414 -175.304 -1.16409 -18.7498 -36.4458 -70.4813 45.1052 -84.5286 7.90991 13.8357 -29.8383 0.420957 0.000575542 0.35866 -1.87979 6.28641 44.3895 -69.2766 -37.1929 90.7239 7.40637 -13.5193 29.2193 0.58676 0.000331026 0.0646652 -38.4536 3.69171 94.5074 -13.1091 73.7571 2.30012 0.654134 -0.356439 -0.20003 7.55052 -16.455 11.0435 -38.3648 8.90967 84.8634 1.62403 40.0823 -0.77231 -8.65711 -14.1899 1.305 2.24966 -7.57877 -13.8752 
249.643 96.3131 -211.538 -58.8074 -44.5517 -155.647 -70.1915 0 88.8779 90.5232 70.8154 -2.31907 3.79702 19.9436 2.27634 -152.224 19.9692 177.341 -160.224 59.3287 -171.92 -0.370796 -16.0676 -34.7616 -70.409 46.8588 -86.5458 8.43838 16.1632 -28.6737 0.420957 0.000575542 0.35866 -2.00855 6.9978 43.098 -71.0807 -38.2292 90.3494 8.52149 -13.9508 31.9749 0.58676 0.000331026 0.0646652 -33.7592 2.80545 93.7816 -10.1075 69.7103 -1.84706 -0.687008 -4.6853 -0.397197 5.28343 -12.9769 12.9666 -42.7847 8.62421 85.2407 1.32026 37.2522 -1.73998 -8.58649 -15.6662 1.30942 1.42205 -1.95382 -8.21728 
247.033 96.4518 -208.459 -57.5728 -44.7575 -153.945 -70.1915 0 88.8779 89.768 70.7549 -0.432315 3.36979 19.9613 1.92154 -152.513 20.1695 178.272 -162.182 59.6387 -169.929 -0.26651 -15.6744 -34.5923 -70.2307 47.5734 -85.7205 8.8449 15.7958 -29.5769 0.420957 0.000575542 0.35866 -2.02001 7.27999 42.1142 -72.5414 -38.8381 90.1994 11.3021 -16.7748 34.7482 0.58676 0.000331026 0.0646652 -29.3289 2.42933 92.6659 -6.74779 62.5901 -5.13479 0.303521 -5.14336 -0.519461 7.67644 -16.7425 13.867 -46.0784 9.01707 84.3555 0.968729 34.7338 -1.88948 -8.9875 -16.9002 1.3057 1.08828 -1.72934 -6.02565 
